<svg width="1440" height="908" viewBox="0 0 1440 908" fill="none" xmlns="http://www.w3.org/2000/svg">
<rect x="-22" y="262" width="1463" height="646" fill="#183DB8"/>
<path fill-rule="evenodd" clip-rule="evenodd" d="M1490 108.008L1432.57 132.371C1375.13 156.734 1260.27 205.461 1145.4 181.098C1030.53 156.734 915.667 59.2809 800.8 51.1598C685.933 43.0387 571.067 124.25 456.2 124.25C341.333 124.25 226.467 43.0387 111.6 18.6753C-3.26672 -5.68805 20.4333 -4.32786 -37 11.9144L-12 59.2809V302.915H-11.5667C45.8667 302.915 -3.26672 302.915 111.6 302.915C226.467 302.915 341.333 302.915 456.2 302.915C571.067 302.915 685.933 302.915 800.8 302.915C915.667 302.915 1030.53 302.915 1145.4 302.915C1260.27 302.915 1375.13 302.915 1432.57 302.915H1490V108.008Z" fill="#183DB8"/>
</svg>
